<?xml version="1.0" encoding="UTF-8" standalone="no"?>
<!DOCTYPE svg PUBLIC "-//W3C//DTD SVG 1.1//EN"
 "http://www.w3.org/Graphics/SVG/1.1/DTD/svg11.dtd">
<!-- Generated by graphviz version 2.47.0 (20210316.0004)
 -->
<!-- Title: dependencies Pages: 1 -->
<svg width="1364pt" height="211pt"
 viewBox="0.00 0.00 1364.00 211.00" xmlns="http://www.w3.org/2000/svg" xmlns:xlink="http://www.w3.org/1999/xlink">
<g id="graph0" class="graph" transform="scale(1 1) rotate(0) translate(4 207)">
<title>dependencies</title>
<polygon fill="white" stroke="transparent" points="-4,4 -4,-207 1360,-207 1360,4 -4,4"/>
<text text-anchor="start" x="657.01" y="-42.4" font-family="Times-12" font-weight="bold" font-size="14.00">Legend</text>
<polygon fill="#ffffb3" stroke="transparent" points="444,-10 444,-30 464,-30 464,-10 444,-10"/>
<text text-anchor="start" x="467.63" y="-15.4" font-family="Times-12" font-size="14.00"> &#160;Declarations</text>
<polygon fill="#8dd3c7" stroke="transparent" points="557,-10 557,-30 577,-30 577,-10 557,-10"/>
<text text-anchor="start" x="580.73" y="-15.4" font-family="Times-12" font-size="14.00"> &#160;Module</text>
<polygon fill="#80b1d3" stroke="transparent" points="643,-10 643,-30 663,-30 663,-10 643,-10"/>
<text text-anchor="start" x="666.78" y="-15.4" font-family="Times-12" font-size="14.00"> &#160;Bootstrap</text>
<polygon fill="#fdb462" stroke="transparent" points="740,-10 740,-30 760,-30 760,-10 740,-10"/>
<text text-anchor="start" x="763.67" y="-15.4" font-family="Times-12" font-size="14.00"> &#160;Providers</text>
<polygon fill="#fb8072" stroke="transparent" points="836,-10 836,-30 856,-30 856,-10 836,-10"/>
<text text-anchor="start" x="859.73" y="-15.4" font-family="Times-12" font-size="14.00"> &#160;Exports</text>
<g id="clust1" class="cluster">
<title>cluster_AdminModule</title>
<polygon fill="none" stroke="black" stroke-dasharray="1,5" points="8,-70 8,-195 1348,-195 1348,-70 8,-70"/>
</g>
<g id="clust2" class="cluster">
<title>cluster_AdminModule_declarations</title>
<polygon fill="none" stroke="black" points="184,-78 184,-130 1340,-130 1340,-78 184,-78"/>
</g>
<g id="clust11" class="cluster">
<title>cluster_AdminModule_imports</title>
<polygon fill="none" stroke="black" points="16,-78 16,-130 176,-130 176,-78 16,-78"/>
</g>
<!-- AheaderComponent -->
<g id="node1" class="node">
<title>AheaderComponent</title>
<polygon fill="#ffffb3" stroke="black" points="1332.24,-122 1203.76,-122 1203.76,-86 1332.24,-86 1332.24,-122"/>
<text text-anchor="middle" x="1268" y="-99.8" font-family="Times,serif" font-size="14.00">AheaderComponent</text>
</g>
<!-- AdminModule -->
<g id="node9" class="node">
<title>AdminModule</title>
<polygon fill="#8dd3c7" stroke="black" points="754.44,-187 751.44,-191 730.44,-191 727.44,-187 655.56,-187 655.56,-151 754.44,-151 754.44,-187"/>
<text text-anchor="middle" x="705" y="-164.8" font-family="Times,serif" font-size="14.00">AdminModule</text>
</g>
<!-- AheaderComponent&#45;&gt;AdminModule -->
<g id="edge1" class="edge">
<title>AheaderComponent&#45;&gt;AdminModule</title>
<path fill="none" stroke="black" d="M1268,-122.01C1268,-144.49 1268,-180 1268,-180 1268,-180 764.47,-180 764.47,-180"/>
<polygon fill="black" stroke="black" points="764.47,-176.5 754.47,-180 764.47,-183.5 764.47,-176.5"/>
</g>
<!-- AloyoutComponent -->
<g id="node2" class="node">
<title>AloyoutComponent</title>
<polygon fill="#ffffb3" stroke="black" points="1185.72,-122 1058.28,-122 1058.28,-86 1185.72,-86 1185.72,-122"/>
<text text-anchor="middle" x="1122" y="-99.8" font-family="Times,serif" font-size="14.00">AloyoutComponent</text>
</g>
<!-- AloyoutComponent&#45;&gt;AdminModule -->
<g id="edge2" class="edge">
<title>AloyoutComponent&#45;&gt;AdminModule</title>
<path fill="none" stroke="black" d="M1122,-122.13C1122,-142.57 1122,-173 1122,-173 1122,-173 764.47,-173 764.47,-173"/>
<polygon fill="black" stroke="black" points="764.47,-169.5 754.47,-173 764.47,-176.5 764.47,-169.5"/>
</g>
<!-- CAddComponent -->
<g id="node3" class="node">
<title>CAddComponent</title>
<polygon fill="#ffffb3" stroke="black" points="1040.28,-122 925.72,-122 925.72,-86 1040.28,-86 1040.28,-122"/>
<text text-anchor="middle" x="983" y="-99.8" font-family="Times,serif" font-size="14.00">CAddComponent</text>
</g>
<!-- CAddComponent&#45;&gt;AdminModule -->
<g id="edge3" class="edge">
<title>CAddComponent&#45;&gt;AdminModule</title>
<path fill="none" stroke="black" d="M983,-122.27C983,-140.56 983,-166 983,-166 983,-166 764.38,-166 764.38,-166"/>
<polygon fill="black" stroke="black" points="764.38,-162.5 754.38,-166 764.38,-169.5 764.38,-162.5"/>
</g>
<!-- CDeleteComponent -->
<g id="node4" class="node">
<title>CDeleteComponent</title>
<polygon fill="#ffffb3" stroke="black" points="907.7,-122 780.3,-122 780.3,-86 907.7,-86 907.7,-122"/>
<text text-anchor="middle" x="844" y="-99.8" font-family="Times,serif" font-size="14.00">CDeleteComponent</text>
</g>
<!-- CDeleteComponent&#45;&gt;AdminModule -->
<g id="edge4" class="edge">
<title>CDeleteComponent&#45;&gt;AdminModule</title>
<path fill="none" stroke="black" d="M844,-122.01C844,-138.05 844,-159 844,-159 844,-159 764.4,-159 764.4,-159"/>
<polygon fill="black" stroke="black" points="764.4,-155.5 754.4,-159 764.4,-162.5 764.4,-155.5"/>
</g>
<!-- CEditComponent -->
<g id="node5" class="node">
<title>CEditComponent</title>
<polygon fill="#ffffb3" stroke="black" points="762,-122 648,-122 648,-86 762,-86 762,-122"/>
<text text-anchor="middle" x="705" y="-99.8" font-family="Times,serif" font-size="14.00">CEditComponent</text>
</g>
<!-- CEditComponent&#45;&gt;AdminModule -->
<g id="edge5" class="edge">
<title>CEditComponent&#45;&gt;AdminModule</title>
<path fill="none" stroke="black" d="M705,-122.11C705,-122.11 705,-140.99 705,-140.99"/>
<polygon fill="black" stroke="black" points="701.5,-140.99 705,-150.99 708.5,-140.99 701.5,-140.99"/>
</g>
<!-- CIndexComponent -->
<g id="node6" class="node">
<title>CIndexComponent</title>
<polygon fill="#ffffb3" stroke="black" points="630.05,-122 507.95,-122 507.95,-86 630.05,-86 630.05,-122"/>
<text text-anchor="middle" x="569" y="-99.8" font-family="Times,serif" font-size="14.00">CIndexComponent</text>
</g>
<!-- CIndexComponent&#45;&gt;AdminModule -->
<g id="edge6" class="edge">
<title>CIndexComponent&#45;&gt;AdminModule</title>
<path fill="none" stroke="black" d="M569,-122.01C569,-138.05 569,-159 569,-159 569,-159 645.52,-159 645.52,-159"/>
<polygon fill="black" stroke="black" points="645.52,-162.5 655.52,-159 645.52,-155.5 645.52,-162.5"/>
</g>
<!-- DashboardComponent -->
<g id="node7" class="node">
<title>DashboardComponent</title>
<polygon fill="#ffffb3" stroke="black" points="489.97,-122 348.03,-122 348.03,-86 489.97,-86 489.97,-122"/>
<text text-anchor="middle" x="419" y="-99.8" font-family="Times,serif" font-size="14.00">DashboardComponent</text>
</g>
<!-- DashboardComponent&#45;&gt;AdminModule -->
<g id="edge7" class="edge">
<title>DashboardComponent&#45;&gt;AdminModule</title>
<path fill="none" stroke="black" d="M419,-122.27C419,-140.56 419,-166 419,-166 419,-166 645.51,-166 645.51,-166"/>
<polygon fill="black" stroke="black" points="645.51,-169.5 655.51,-166 645.51,-162.5 645.51,-169.5"/>
</g>
<!-- SidemenuComponent -->
<g id="node8" class="node">
<title>SidemenuComponent</title>
<polygon fill="#ffffb3" stroke="black" points="329.83,-122 192.17,-122 192.17,-86 329.83,-86 329.83,-122"/>
<text text-anchor="middle" x="261" y="-99.8" font-family="Times,serif" font-size="14.00">SidemenuComponent</text>
</g>
<!-- SidemenuComponent&#45;&gt;AdminModule -->
<g id="edge8" class="edge">
<title>SidemenuComponent&#45;&gt;AdminModule</title>
<path fill="none" stroke="black" d="M261,-122.13C261,-142.57 261,-173 261,-173 261,-173 645.36,-173 645.36,-173"/>
<polygon fill="black" stroke="black" points="645.36,-176.5 655.36,-173 645.36,-169.5 645.36,-176.5"/>
</g>
<!-- AdminRoutingModule -->
<g id="node10" class="node">
<title>AdminRoutingModule</title>
<polygon fill="#8dd3c7" stroke="black" points="167.56,-122 164.56,-126 143.56,-126 140.56,-122 24.44,-122 24.44,-86 167.56,-86 167.56,-122"/>
<text text-anchor="middle" x="96" y="-99.8" font-family="Times,serif" font-size="14.00">AdminRoutingModule</text>
</g>
<!-- AdminRoutingModule&#45;&gt;AdminModule -->
<g id="edge9" class="edge">
<title>AdminRoutingModule&#45;&gt;AdminModule</title>
<path fill="none" stroke="black" d="M96,-122.01C96,-144.49 96,-180 96,-180 96,-180 645.68,-180 645.68,-180"/>
<polygon fill="black" stroke="black" points="645.68,-183.5 655.68,-180 645.68,-176.5 645.68,-183.5"/>
</g>
</g>
</svg>
