<?xml version="1.0" encoding="UTF-8" standalone="no"?>
<!DOCTYPE svg PUBLIC "-//W3C//DTD SVG 1.1//EN"
 "http://www.w3.org/Graphics/SVG/1.1/DTD/svg11.dtd">
<!-- Generated by graphviz version 2.47.0 (20210316.0004)
 -->
<!-- Title: dependencies Pages: 1 -->
<svg width="4059pt" height="284pt"
 viewBox="0.00 0.00 4059.00 284.00" xmlns="http://www.w3.org/2000/svg" xmlns:xlink="http://www.w3.org/1999/xlink">
<g id="graph0" class="graph" transform="scale(1 1) rotate(0) translate(4 280)">
<title>dependencies</title>
<polygon fill="white" stroke="transparent" points="-4,4 -4,-280 4055,-280 4055,4 -4,4"/>
<text text-anchor="start" x="2004.51" y="-42.4" font-family="Times-12" font-weight="bold" font-size="14.00">Legend</text>
<polygon fill="#ffffb3" stroke="transparent" points="1791.5,-10 1791.5,-30 1811.5,-30 1811.5,-10 1791.5,-10"/>
<text text-anchor="start" x="1815.13" y="-15.4" font-family="Times-12" font-size="14.00"> &#160;Declarations</text>
<polygon fill="#8dd3c7" stroke="transparent" points="1904.5,-10 1904.5,-30 1924.5,-30 1924.5,-10 1904.5,-10"/>
<text text-anchor="start" x="1928.23" y="-15.4" font-family="Times-12" font-size="14.00"> &#160;Module</text>
<polygon fill="#80b1d3" stroke="transparent" points="1990.5,-10 1990.5,-30 2010.5,-30 2010.5,-10 1990.5,-10"/>
<text text-anchor="start" x="2014.28" y="-15.4" font-family="Times-12" font-size="14.00"> &#160;Bootstrap</text>
<polygon fill="#fdb462" stroke="transparent" points="2087.5,-10 2087.5,-30 2107.5,-30 2107.5,-10 2087.5,-10"/>
<text text-anchor="start" x="2111.17" y="-15.4" font-family="Times-12" font-size="14.00"> &#160;Providers</text>
<polygon fill="#fb8072" stroke="transparent" points="2183.5,-10 2183.5,-30 2203.5,-30 2203.5,-10 2183.5,-10"/>
<text text-anchor="start" x="2207.23" y="-15.4" font-family="Times-12" font-size="14.00"> &#160;Exports</text>
<g id="clust1" class="cluster">
<title>cluster_AdminModule</title>
<polygon fill="none" stroke="black" stroke-dasharray="1,5" points="8,-70 8,-195 1348,-195 1348,-70 8,-70"/>
</g>
<g id="clust2" class="cluster">
<title>cluster_AdminModule_declarations</title>
<polygon fill="none" stroke="black" points="184,-78 184,-130 1340,-130 1340,-78 184,-78"/>
</g>
<g id="clust11" class="cluster">
<title>cluster_AdminModule_imports</title>
<polygon fill="none" stroke="black" points="16,-78 16,-130 176,-130 176,-78 16,-78"/>
</g>
<g id="clust21" class="cluster">
<title>cluster_AppModule</title>
<polygon fill="none" stroke="black" stroke-dasharray="1,5" points="1356,-70 1356,-268 1774,-268 1774,-70 1356,-70"/>
</g>
<g id="clust22" class="cluster">
<title>cluster_AppModule_declarations</title>
<polygon fill="none" stroke="black" points="1516,-78 1516,-130 1766,-130 1766,-78 1516,-78"/>
</g>
<g id="clust25" class="cluster">
<title>cluster_AppModule_imports</title>
<polygon fill="none" stroke="black" points="1364,-78 1364,-130 1508,-130 1508,-78 1364,-78"/>
</g>
<g id="clust27" class="cluster">
<title>cluster_AppModule_bootstrap</title>
<polygon fill="none" stroke="black" points="1642,-208 1642,-260 1766,-260 1766,-208 1642,-208"/>
</g>
<g id="clust35" class="cluster">
<title>cluster_AppServerModule</title>
<polygon fill="none" stroke="black" stroke-dasharray="1,5" points="1782,-208 1782,-260 1918,-260 1918,-208 1782,-208"/>
</g>
<g id="clust41" class="cluster">
<title>cluster_AuthModule</title>
<polygon fill="none" stroke="black" stroke-dasharray="1,5" points="1782,-70 1782,-195 2224,-195 2224,-70 1782,-70"/>
</g>
<g id="clust42" class="cluster">
<title>cluster_AuthModule_declarations</title>
<polygon fill="none" stroke="black" points="1946,-78 1946,-130 2216,-130 2216,-78 1946,-78"/>
</g>
<g id="clust45" class="cluster">
<title>cluster_AuthModule_imports</title>
<polygon fill="none" stroke="black" points="1790,-78 1790,-130 1938,-130 1938,-78 1790,-78"/>
</g>
<g id="clust55" class="cluster">
<title>cluster_CocktailModule</title>
<polygon fill="none" stroke="black" stroke-dasharray="1,5" points="2232,-70 2232,-195 2416,-195 2416,-70 2232,-70"/>
</g>
<g id="clust57" class="cluster">
<title>cluster_CocktailModule_imports</title>
<polygon fill="none" stroke="black" points="2240,-78 2240,-130 2408,-130 2408,-78 2240,-78"/>
</g>
<g id="clust67" class="cluster">
<title>cluster_PublicModule</title>
<polygon fill="none" stroke="black" stroke-dasharray="1,5" points="2424,-70 2424,-195 3311,-195 3311,-70 2424,-70"/>
</g>
<g id="clust68" class="cluster">
<title>cluster_PublicModule_declarations</title>
<polygon fill="none" stroke="black" points="2596,-78 2596,-130 3303,-130 3303,-78 2596,-78"/>
</g>
<g id="clust74" class="cluster">
<title>cluster_PublicModule_imports</title>
<polygon fill="none" stroke="black" points="2432,-78 2432,-130 2588,-130 2588,-78 2432,-78"/>
</g>
<g id="clust84" class="cluster">
<title>cluster_UserModule</title>
<polygon fill="none" stroke="black" stroke-dasharray="1,5" points="3319,-70 3319,-195 4043,-195 4043,-70 3319,-70"/>
</g>
<g id="clust85" class="cluster">
<title>cluster_UserModule_declarations</title>
<polygon fill="none" stroke="black" points="3483,-78 3483,-130 4035,-130 4035,-78 3483,-78"/>
</g>
<g id="clust90" class="cluster">
<title>cluster_UserModule_imports</title>
<polygon fill="none" stroke="black" points="3327,-78 3327,-130 3475,-130 3475,-78 3327,-78"/>
</g>
<!-- AheaderComponent -->
<g id="node1" class="node">
<title>AheaderComponent</title>
<polygon fill="#ffffb3" stroke="black" points="1332.24,-122 1203.76,-122 1203.76,-86 1332.24,-86 1332.24,-122"/>
<text text-anchor="middle" x="1268" y="-99.8" font-family="Times,serif" font-size="14.00">AheaderComponent</text>
</g>
<!-- AdminModule -->
<g id="node9" class="node">
<title>AdminModule</title>
<polygon fill="#8dd3c7" stroke="black" points="754.44,-187 751.44,-191 730.44,-191 727.44,-187 655.56,-187 655.56,-151 754.44,-151 754.44,-187"/>
<text text-anchor="middle" x="705" y="-164.8" font-family="Times,serif" font-size="14.00">AdminModule</text>
</g>
<!-- AheaderComponent&#45;&gt;AdminModule -->
<g id="edge1" class="edge">
<title>AheaderComponent&#45;&gt;AdminModule</title>
<path fill="none" stroke="black" d="M1268,-122.22C1268,-142.37 1268,-172 1268,-172 1268,-172 764.47,-172 764.47,-172"/>
<polygon fill="black" stroke="black" points="764.47,-168.5 754.47,-172 764.47,-175.5 764.47,-168.5"/>
</g>
<!-- AloyoutComponent -->
<g id="node2" class="node">
<title>AloyoutComponent</title>
<polygon fill="#ffffb3" stroke="black" points="1185.72,-122 1058.28,-122 1058.28,-86 1185.72,-86 1185.72,-122"/>
<text text-anchor="middle" x="1122" y="-99.8" font-family="Times,serif" font-size="14.00">AloyoutComponent</text>
</g>
<!-- AloyoutComponent&#45;&gt;AdminModule -->
<g id="edge2" class="edge">
<title>AloyoutComponent&#45;&gt;AdminModule</title>
<path fill="none" stroke="black" d="M1122,-122.22C1122,-140.83 1122,-167 1122,-167 1122,-167 764.47,-167 764.47,-167"/>
<polygon fill="black" stroke="black" points="764.47,-163.5 754.47,-167 764.47,-170.5 764.47,-163.5"/>
</g>
<!-- CAddComponent -->
<g id="node3" class="node">
<title>CAddComponent</title>
<polygon fill="#ffffb3" stroke="black" points="1040.28,-122 925.72,-122 925.72,-86 1040.28,-86 1040.28,-122"/>
<text text-anchor="middle" x="983" y="-99.8" font-family="Times,serif" font-size="14.00">CAddComponent</text>
</g>
<!-- CAddComponent&#45;&gt;AdminModule -->
<g id="edge3" class="edge">
<title>CAddComponent&#45;&gt;AdminModule</title>
<path fill="none" stroke="black" d="M983,-122.03C983,-139.06 983,-162 983,-162 983,-162 764.38,-162 764.38,-162"/>
<polygon fill="black" stroke="black" points="764.38,-158.5 754.38,-162 764.38,-165.5 764.38,-158.5"/>
</g>
<!-- CDeleteComponent -->
<g id="node4" class="node">
<title>CDeleteComponent</title>
<polygon fill="#ffffb3" stroke="black" points="907.7,-122 780.3,-122 780.3,-86 907.7,-86 907.7,-122"/>
<text text-anchor="middle" x="844" y="-99.8" font-family="Times,serif" font-size="14.00">CDeleteComponent</text>
</g>
<!-- CDeleteComponent&#45;&gt;AdminModule -->
<g id="edge4" class="edge">
<title>CDeleteComponent&#45;&gt;AdminModule</title>
<path fill="none" stroke="black" d="M844,-122.24C844,-137.57 844,-157 844,-157 844,-157 764.4,-157 764.4,-157"/>
<polygon fill="black" stroke="black" points="764.4,-153.5 754.4,-157 764.4,-160.5 764.4,-153.5"/>
</g>
<!-- CEditComponent -->
<g id="node5" class="node">
<title>CEditComponent</title>
<polygon fill="#ffffb3" stroke="black" points="762,-122 648,-122 648,-86 762,-86 762,-122"/>
<text text-anchor="middle" x="705" y="-99.8" font-family="Times,serif" font-size="14.00">CEditComponent</text>
</g>
<!-- CEditComponent&#45;&gt;AdminModule -->
<g id="edge5" class="edge">
<title>CEditComponent&#45;&gt;AdminModule</title>
<path fill="none" stroke="black" d="M705,-122.11C705,-122.11 705,-140.99 705,-140.99"/>
<polygon fill="black" stroke="black" points="701.5,-140.99 705,-150.99 708.5,-140.99 701.5,-140.99"/>
</g>
<!-- CIndexComponent -->
<g id="node6" class="node">
<title>CIndexComponent</title>
<polygon fill="#ffffb3" stroke="black" points="630.05,-122 507.95,-122 507.95,-86 630.05,-86 630.05,-122"/>
<text text-anchor="middle" x="569" y="-99.8" font-family="Times,serif" font-size="14.00">CIndexComponent</text>
</g>
<!-- CIndexComponent&#45;&gt;AdminModule -->
<g id="edge6" class="edge">
<title>CIndexComponent&#45;&gt;AdminModule</title>
<path fill="none" stroke="black" d="M569,-122.01C569,-138.05 569,-159 569,-159 569,-159 645.52,-159 645.52,-159"/>
<polygon fill="black" stroke="black" points="645.52,-162.5 655.52,-159 645.52,-155.5 645.52,-162.5"/>
</g>
<!-- DashboardComponent -->
<g id="node7" class="node">
<title>DashboardComponent</title>
<polygon fill="#ffffb3" stroke="black" points="489.97,-122 348.03,-122 348.03,-86 489.97,-86 489.97,-122"/>
<text text-anchor="middle" x="419" y="-99.8" font-family="Times,serif" font-size="14.00">DashboardComponent</text>
</g>
<!-- DashboardComponent&#45;&gt;AdminModule -->
<g id="edge7" class="edge">
<title>DashboardComponent&#45;&gt;AdminModule</title>
<path fill="none" stroke="black" d="M419,-122.27C419,-140.56 419,-166 419,-166 419,-166 645.51,-166 645.51,-166"/>
<polygon fill="black" stroke="black" points="645.51,-169.5 655.51,-166 645.51,-162.5 645.51,-169.5"/>
</g>
<!-- SidemenuComponent -->
<g id="node8" class="node">
<title>SidemenuComponent</title>
<polygon fill="#ffffb3" stroke="black" points="329.83,-122 192.17,-122 192.17,-86 329.83,-86 329.83,-122"/>
<text text-anchor="middle" x="261" y="-99.8" font-family="Times,serif" font-size="14.00">SidemenuComponent</text>
</g>
<!-- SidemenuComponent&#45;&gt;AdminModule -->
<g id="edge8" class="edge">
<title>SidemenuComponent&#45;&gt;AdminModule</title>
<path fill="none" stroke="black" d="M261,-122.13C261,-142.57 261,-173 261,-173 261,-173 645.36,-173 645.36,-173"/>
<polygon fill="black" stroke="black" points="645.36,-176.5 655.36,-173 645.36,-169.5 645.36,-176.5"/>
</g>
<!-- AdminRoutingModule -->
<g id="node10" class="node">
<title>AdminRoutingModule</title>
<polygon fill="#8dd3c7" stroke="black" points="167.56,-122 164.56,-126 143.56,-126 140.56,-122 24.44,-122 24.44,-86 167.56,-86 167.56,-122"/>
<text text-anchor="middle" x="96" y="-99.8" font-family="Times,serif" font-size="14.00">AdminRoutingModule</text>
</g>
<!-- AdminRoutingModule&#45;&gt;AdminModule -->
<g id="edge9" class="edge">
<title>AdminRoutingModule&#45;&gt;AdminModule</title>
<path fill="none" stroke="black" d="M96,-122.01C96,-144.49 96,-180 96,-180 96,-180 645.68,-180 645.68,-180"/>
<polygon fill="black" stroke="black" points="645.68,-183.5 655.68,-180 645.68,-176.5 645.68,-183.5"/>
</g>
<!-- AppComponent -->
<g id="node11" class="node">
<title>AppComponent</title>
<polygon fill="#ffffb3" stroke="black" points="1757.94,-122 1652.06,-122 1652.06,-86 1757.94,-86 1757.94,-122"/>
<text text-anchor="middle" x="1705" y="-99.8" font-family="Times,serif" font-size="14.00">AppComponent</text>
</g>
<!-- AppModule -->
<g id="node13" class="node">
<title>AppModule</title>
<polygon fill="#8dd3c7" stroke="black" points="1745.66,-187 1742.66,-191 1721.66,-191 1718.66,-187 1662.34,-187 1662.34,-151 1745.66,-151 1745.66,-187"/>
<text text-anchor="middle" x="1704" y="-164.8" font-family="Times,serif" font-size="14.00">AppModule</text>
</g>
<!-- AppComponent&#45;&gt;AppModule -->
<g id="edge10" class="edge">
<title>AppComponent&#45;&gt;AppModule</title>
<path fill="none" stroke="black" d="M1704,-122.11C1704,-122.11 1704,-140.99 1704,-140.99"/>
<polygon fill="black" stroke="black" points="1700.5,-140.99 1704,-150.99 1707.5,-140.99 1700.5,-140.99"/>
</g>
<!-- ErrorComponent -->
<g id="node12" class="node">
<title>ErrorComponent</title>
<polygon fill="#ffffb3" stroke="black" points="1634.37,-122 1523.63,-122 1523.63,-86 1634.37,-86 1634.37,-122"/>
<text text-anchor="middle" x="1579" y="-99.8" font-family="Times,serif" font-size="14.00">ErrorComponent</text>
</g>
<!-- ErrorComponent&#45;&gt;AppModule -->
<g id="edge11" class="edge">
<title>ErrorComponent&#45;&gt;AppModule</title>
<path fill="none" stroke="black" d="M1579,-122.04C1579,-143.66 1579,-177 1579,-177 1579,-177 1652.03,-177 1652.03,-177"/>
<polygon fill="black" stroke="black" points="1652.03,-180.5 1662.03,-177 1652.03,-173.5 1652.03,-180.5"/>
</g>
<!-- AppComponent  -->
<g id="node15" class="node">
<title>AppComponent </title>
<polygon fill="#80b1d3" stroke="black" points="1758.44,-252 1649.56,-252 1649.56,-216 1758.44,-216 1758.44,-252"/>
<text text-anchor="middle" x="1704" y="-229.8" font-family="Times,serif" font-size="14.00">AppComponent </text>
</g>
<!-- AppModule&#45;&gt;AppComponent  -->
<g id="edge13" class="edge">
<title>AppModule&#45;&gt;AppComponent </title>
<path fill="none" stroke="black" stroke-dasharray="1,5" d="M1704,-187.11C1704,-187.11 1704,-205.99 1704,-205.99"/>
<polygon fill="black" stroke="black" points="1700.5,-205.99 1704,-215.99 1707.5,-205.99 1700.5,-205.99"/>
</g>
<!-- AppServerModule -->
<g id="node16" class="node">
<title>AppServerModule</title>
<polygon fill="#8dd3c7" stroke="black" points="1910.19,-252 1907.19,-256 1886.19,-256 1883.19,-252 1789.81,-252 1789.81,-216 1910.19,-216 1910.19,-252"/>
<text text-anchor="middle" x="1850" y="-229.8" font-family="Times,serif" font-size="14.00">AppServerModule</text>
</g>
<!-- AppModule&#45;&gt;AppServerModule -->
<g id="edge14" class="edge">
<title>AppModule&#45;&gt;AppServerModule</title>
<path fill="none" stroke="black" d="M1745.74,-175C1769.19,-175 1793.79,-175 1793.79,-175 1793.79,-175 1793.79,-205.98 1793.79,-205.98"/>
<polygon fill="black" stroke="black" points="1790.29,-205.98 1793.79,-215.98 1797.29,-205.98 1790.29,-205.98"/>
</g>
<!-- AppRoutingModule -->
<g id="node14" class="node">
<title>AppRoutingModule</title>
<polygon fill="#8dd3c7" stroke="black" points="1500.27,-122 1497.27,-126 1476.27,-126 1473.27,-122 1371.73,-122 1371.73,-86 1500.27,-86 1500.27,-122"/>
<text text-anchor="middle" x="1436" y="-99.8" font-family="Times,serif" font-size="14.00">AppRoutingModule</text>
</g>
<!-- AppRoutingModule&#45;&gt;AppModule -->
<g id="edge12" class="edge">
<title>AppRoutingModule&#45;&gt;AppModule</title>
<path fill="none" stroke="black" d="M1436,-122.09C1436,-145.13 1436,-182 1436,-182 1436,-182 1652.12,-182 1652.12,-182"/>
<polygon fill="black" stroke="black" points="1652.13,-185.5 1662.12,-182 1652.12,-178.5 1652.13,-185.5"/>
</g>
<!-- AppServerModule&#45;&gt;AppComponent  -->
<g id="edge15" class="edge">
<title>AppServerModule&#45;&gt;AppComponent </title>
<path fill="none" stroke="black" stroke-dasharray="1,5" d="M1789.77,-234C1789.77,-234 1768.48,-234 1768.48,-234"/>
<polygon fill="black" stroke="black" points="1768.48,-230.5 1758.48,-234 1768.48,-237.5 1768.48,-230.5"/>
</g>
<!-- LoginComponent -->
<g id="node17" class="node">
<title>LoginComponent</title>
<polygon fill="#ffffb3" stroke="black" points="2208.28,-122 2093.72,-122 2093.72,-86 2208.28,-86 2208.28,-122"/>
<text text-anchor="middle" x="2151" y="-99.8" font-family="Times,serif" font-size="14.00">LoginComponent</text>
</g>
<!-- AuthModule -->
<g id="node19" class="node">
<title>AuthModule</title>
<polygon fill="#8dd3c7" stroke="black" points="2058.55,-187 2055.55,-191 2034.55,-191 2031.55,-187 1971.45,-187 1971.45,-151 2058.55,-151 2058.55,-187"/>
<text text-anchor="middle" x="2015" y="-164.8" font-family="Times,serif" font-size="14.00">AuthModule</text>
</g>
<!-- LoginComponent&#45;&gt;AuthModule -->
<g id="edge16" class="edge">
<title>LoginComponent&#45;&gt;AuthModule</title>
<path fill="none" stroke="black" d="M2151,-122.11C2151,-141.34 2151,-169 2151,-169 2151,-169 2068.78,-169 2068.78,-169"/>
<polygon fill="black" stroke="black" points="2068.78,-165.5 2058.78,-169 2068.78,-172.5 2068.78,-165.5"/>
</g>
<!-- LogoutComponent -->
<g id="node18" class="node">
<title>LogoutComponent</title>
<polygon fill="#ffffb3" stroke="black" points="2075.78,-122 1954.22,-122 1954.22,-86 2075.78,-86 2075.78,-122"/>
<text text-anchor="middle" x="2015" y="-99.8" font-family="Times,serif" font-size="14.00">LogoutComponent</text>
</g>
<!-- LogoutComponent&#45;&gt;AuthModule -->
<g id="edge17" class="edge">
<title>LogoutComponent&#45;&gt;AuthModule</title>
<path fill="none" stroke="black" d="M2015,-122.11C2015,-122.11 2015,-140.99 2015,-140.99"/>
<polygon fill="black" stroke="black" points="2011.5,-140.99 2015,-150.99 2018.5,-140.99 2011.5,-140.99"/>
</g>
<!-- AuthRoutingModule -->
<g id="node20" class="node">
<title>AuthRoutingModule</title>
<polygon fill="#8dd3c7" stroke="black" points="1930.17,-122 1927.17,-126 1906.17,-126 1903.17,-122 1797.83,-122 1797.83,-86 1930.17,-86 1930.17,-122"/>
<text text-anchor="middle" x="1864" y="-99.8" font-family="Times,serif" font-size="14.00">AuthRoutingModule</text>
</g>
<!-- AuthRoutingModule&#45;&gt;AuthModule -->
<g id="edge18" class="edge">
<title>AuthRoutingModule&#45;&gt;AuthModule</title>
<path fill="none" stroke="black" d="M1920.21,-122.02C1920.21,-139.37 1920.21,-163 1920.21,-163 1920.21,-163 1961.21,-163 1961.21,-163"/>
<polygon fill="black" stroke="black" points="1961.21,-166.5 1971.21,-163 1961.21,-159.5 1961.21,-166.5"/>
</g>
<!-- CocktailRoutingModule -->
<g id="node21" class="node">
<title>CocktailRoutingModule</title>
<polygon fill="#8dd3c7" stroke="black" points="2400.11,-122 2397.11,-126 2376.11,-126 2373.11,-122 2247.89,-122 2247.89,-86 2400.11,-86 2400.11,-122"/>
<text text-anchor="middle" x="2324" y="-99.8" font-family="Times,serif" font-size="14.00">CocktailRoutingModule</text>
</g>
<!-- CocktailModule -->
<g id="node22" class="node">
<title>CocktailModule</title>
<polygon fill="#8dd3c7" stroke="black" points="2377.49,-187 2374.49,-191 2353.49,-191 2350.49,-187 2270.51,-187 2270.51,-151 2377.49,-151 2377.49,-187"/>
<text text-anchor="middle" x="2324" y="-164.8" font-family="Times,serif" font-size="14.00">CocktailModule</text>
</g>
<!-- CocktailRoutingModule&#45;&gt;CocktailModule -->
<g id="edge19" class="edge">
<title>CocktailRoutingModule&#45;&gt;CocktailModule</title>
<path fill="none" stroke="black" d="M2324,-122.11C2324,-122.11 2324,-140.99 2324,-140.99"/>
<polygon fill="black" stroke="black" points="2320.5,-140.99 2324,-150.99 2327.5,-140.99 2320.5,-140.99"/>
</g>
<!-- CocktailComponent -->
<g id="node23" class="node">
<title>CocktailComponent</title>
<polygon fill="#ffffb3" stroke="black" points="3295.27,-122 3166.73,-122 3166.73,-86 3295.27,-86 3295.27,-122"/>
<text text-anchor="middle" x="3231" y="-99.8" font-family="Times,serif" font-size="14.00">CocktailComponent</text>
</g>
<!-- PublicModule -->
<g id="node28" class="node">
<title>PublicModule</title>
<polygon fill="#8dd3c7" stroke="black" points="2925.83,-187 2922.83,-191 2901.83,-191 2898.83,-187 2830.17,-187 2830.17,-151 2925.83,-151 2925.83,-187"/>
<text text-anchor="middle" x="2878" y="-164.8" font-family="Times,serif" font-size="14.00">PublicModule</text>
</g>
<!-- CocktailComponent&#45;&gt;PublicModule -->
<g id="edge20" class="edge">
<title>CocktailComponent&#45;&gt;PublicModule</title>
<path fill="none" stroke="black" d="M3231,-122.27C3231,-140.56 3231,-166 3231,-166 3231,-166 2935.97,-166 2935.97,-166"/>
<polygon fill="black" stroke="black" points="2935.97,-162.5 2925.97,-166 2935.97,-169.5 2935.97,-162.5"/>
</g>
<!-- ContactComponent -->
<g id="node24" class="node">
<title>ContactComponent</title>
<polygon fill="#ffffb3" stroke="black" points="3148.38,-122 3023.62,-122 3023.62,-86 3148.38,-86 3148.38,-122"/>
<text text-anchor="middle" x="3086" y="-99.8" font-family="Times,serif" font-size="14.00">ContactComponent</text>
</g>
<!-- ContactComponent&#45;&gt;PublicModule -->
<g id="edge21" class="edge">
<title>ContactComponent&#45;&gt;PublicModule</title>
<path fill="none" stroke="black" d="M3086,-122.01C3086,-138.05 3086,-159 3086,-159 3086,-159 2935.72,-159 2935.72,-159"/>
<polygon fill="black" stroke="black" points="2935.72,-155.5 2925.72,-159 2935.72,-162.5 2935.72,-155.5"/>
</g>
<!-- HomeComponent -->
<g id="node25" class="node">
<title>HomeComponent</title>
<polygon fill="#ffffb3" stroke="black" points="3005.55,-122 2890.45,-122 2890.45,-86 3005.55,-86 3005.55,-122"/>
<text text-anchor="middle" x="2948" y="-99.8" font-family="Times,serif" font-size="14.00">HomeComponent</text>
</g>
<!-- HomeComponent&#45;&gt;PublicModule -->
<g id="edge22" class="edge">
<title>HomeComponent&#45;&gt;PublicModule</title>
<path fill="none" stroke="black" d="M2907.95,-122.11C2907.95,-122.11 2907.95,-140.99 2907.95,-140.99"/>
<polygon fill="black" stroke="black" points="2904.45,-140.99 2907.95,-150.99 2911.45,-140.99 2904.45,-140.99"/>
</g>
<!-- PheaderComponent -->
<g id="node26" class="node">
<title>PheaderComponent</title>
<polygon fill="#ffffb3" stroke="black" points="2872.42,-122 2745.58,-122 2745.58,-86 2872.42,-86 2872.42,-122"/>
<text text-anchor="middle" x="2809" y="-99.8" font-family="Times,serif" font-size="14.00">PheaderComponent</text>
</g>
<!-- PheaderComponent&#45;&gt;PublicModule -->
<g id="edge23" class="edge">
<title>PheaderComponent&#45;&gt;PublicModule</title>
<path fill="none" stroke="black" d="M2851.27,-122.11C2851.27,-122.11 2851.27,-140.99 2851.27,-140.99"/>
<polygon fill="black" stroke="black" points="2847.77,-140.99 2851.27,-150.99 2854.77,-140.99 2847.77,-140.99"/>
</g>
<!-- PlayoutComponent -->
<g id="node27" class="node">
<title>PlayoutComponent</title>
<polygon fill="#ffffb3" stroke="black" points="2728.11,-122 2603.89,-122 2603.89,-86 2728.11,-86 2728.11,-122"/>
<text text-anchor="middle" x="2666" y="-99.8" font-family="Times,serif" font-size="14.00">PlayoutComponent</text>
</g>
<!-- PlayoutComponent&#45;&gt;PublicModule -->
<g id="edge24" class="edge">
<title>PlayoutComponent&#45;&gt;PublicModule</title>
<path fill="none" stroke="black" d="M2666,-122.02C2666,-139.37 2666,-163 2666,-163 2666,-163 2820.16,-163 2820.16,-163"/>
<polygon fill="black" stroke="black" points="2820.16,-166.5 2830.16,-163 2820.16,-159.5 2820.16,-166.5"/>
</g>
<!-- PublicRoutingModule -->
<g id="node29" class="node">
<title>PublicRoutingModule</title>
<polygon fill="#8dd3c7" stroke="black" points="2580.45,-122 2577.45,-126 2556.45,-126 2553.45,-122 2439.55,-122 2439.55,-86 2580.45,-86 2580.45,-122"/>
<text text-anchor="middle" x="2510" y="-99.8" font-family="Times,serif" font-size="14.00">PublicRoutingModule</text>
</g>
<!-- PublicRoutingModule&#45;&gt;PublicModule -->
<g id="edge25" class="edge">
<title>PublicRoutingModule&#45;&gt;PublicModule</title>
<path fill="none" stroke="black" d="M2510,-122.28C2510,-143.32 2510,-175 2510,-175 2510,-175 2820.27,-175 2820.27,-175"/>
<polygon fill="black" stroke="black" points="2820.27,-178.5 2830.27,-175 2820.27,-171.5 2820.27,-178.5"/>
</g>
<!-- UAddComponent -->
<g id="node30" class="node">
<title>UAddComponent</title>
<polygon fill="#ffffb3" stroke="black" points="4026.55,-122 3911.45,-122 3911.45,-86 4026.55,-86 4026.55,-122"/>
<text text-anchor="middle" x="3969" y="-99.8" font-family="Times,serif" font-size="14.00">UAddComponent</text>
</g>
<!-- UserModule -->
<g id="node34" class="node">
<title>UserModule</title>
<polygon fill="#8dd3c7" stroke="black" points="3732.98,-187 3729.98,-191 3708.98,-191 3705.98,-187 3647.02,-187 3647.02,-151 3732.98,-151 3732.98,-187"/>
<text text-anchor="middle" x="3690" y="-164.8" font-family="Times,serif" font-size="14.00">UserModule</text>
</g>
<!-- UAddComponent&#45;&gt;UserModule -->
<g id="edge26" class="edge">
<title>UAddComponent&#45;&gt;UserModule</title>
<path fill="none" stroke="black" d="M3969,-122.28C3969,-143.32 3969,-175 3969,-175 3969,-175 3742.98,-175 3742.98,-175"/>
<polygon fill="black" stroke="black" points="3742.98,-171.5 3732.98,-175 3742.98,-178.5 3742.98,-171.5"/>
</g>
<!-- UDeleteComponent -->
<g id="node31" class="node">
<title>UDeleteComponent</title>
<polygon fill="#ffffb3" stroke="black" points="3892.97,-122 3765.03,-122 3765.03,-86 3892.97,-86 3892.97,-122"/>
<text text-anchor="middle" x="3829" y="-99.8" font-family="Times,serif" font-size="14.00">UDeleteComponent</text>
</g>
<!-- UDeleteComponent&#45;&gt;UserModule -->
<g id="edge27" class="edge">
<title>UDeleteComponent&#45;&gt;UserModule</title>
<path fill="none" stroke="black" d="M3829,-122.02C3829,-139.37 3829,-163 3829,-163 3829,-163 3743.22,-163 3743.22,-163"/>
<polygon fill="black" stroke="black" points="3743.22,-159.5 3733.22,-163 3743.22,-166.5 3743.22,-159.5"/>
</g>
<!-- UEditComponent -->
<g id="node32" class="node">
<title>UEditComponent</title>
<polygon fill="#ffffb3" stroke="black" points="3747.27,-122 3632.73,-122 3632.73,-86 3747.27,-86 3747.27,-122"/>
<text text-anchor="middle" x="3690" y="-99.8" font-family="Times,serif" font-size="14.00">UEditComponent</text>
</g>
<!-- UEditComponent&#45;&gt;UserModule -->
<g id="edge28" class="edge">
<title>UEditComponent&#45;&gt;UserModule</title>
<path fill="none" stroke="black" d="M3690,-122.11C3690,-122.11 3690,-140.99 3690,-140.99"/>
<polygon fill="black" stroke="black" points="3686.5,-140.99 3690,-150.99 3693.5,-140.99 3686.5,-140.99"/>
</g>
<!-- UIndexComponent -->
<g id="node33" class="node">
<title>UIndexComponent</title>
<polygon fill="#ffffb3" stroke="black" points="3614.81,-122 3491.19,-122 3491.19,-86 3614.81,-86 3614.81,-122"/>
<text text-anchor="middle" x="3553" y="-99.8" font-family="Times,serif" font-size="14.00">UIndexComponent</text>
</g>
<!-- UIndexComponent&#45;&gt;UserModule -->
<g id="edge29" class="edge">
<title>UIndexComponent&#45;&gt;UserModule</title>
<path fill="none" stroke="black" d="M3553,-122.13C3553,-142.57 3553,-173 3553,-173 3553,-173 3636.65,-173 3636.65,-173"/>
<polygon fill="black" stroke="black" points="3636.65,-176.5 3646.65,-173 3636.65,-169.5 3636.65,-176.5"/>
</g>
<!-- UserRoutingModule -->
<g id="node35" class="node">
<title>UserRoutingModule</title>
<polygon fill="#8dd3c7" stroke="black" points="3466.59,-122 3463.59,-126 3442.59,-126 3439.59,-122 3335.41,-122 3335.41,-86 3466.59,-86 3466.59,-122"/>
<text text-anchor="middle" x="3401" y="-99.8" font-family="Times,serif" font-size="14.00">UserRoutingModule</text>
</g>
<!-- UserRoutingModule&#45;&gt;UserModule -->
<g id="edge30" class="edge">
<title>UserRoutingModule&#45;&gt;UserModule</title>
<path fill="none" stroke="black" d="M3401,-122.01C3401,-144.49 3401,-180 3401,-180 3401,-180 3636.73,-180 3636.73,-180"/>
<polygon fill="black" stroke="black" points="3636.73,-183.5 3646.73,-180 3636.73,-176.5 3636.73,-183.5"/>
</g>
</g>
</svg>
